# xmcd CD database file
#
# Track frame offsets:
#	150
#	16588
#	34414
#	54688
#	73541
#	93069
#	113259
#	132065
#	148757
#	165216
#	181307
#	204285
#	225083
#	241337
#	263317
#	279912
#	296245
#	311661
#	329068
#	345228
#
# Disc length: 4760 seconds
#
# Revision: 4
# Processed by: cddbd v1.5.1PL2 Copyright (c) Steve Scherf et al.
# Submitted via: CDex 1.40Release
#
DISCID=03129614
DTITLE=Varios Artistas - Ñ CD2
DYEAR=2000
DGENRE=Pop
TTITLE0=Estopa - Me Falta El Aliento
TTITLE1=Jose El Frances - Ya No Quiero Tu Querer
TTITLE2=Niña Pastori - Cai
TTITLE3=Camela - No Quiero Perderte
TTITLE4=Kiko Veneno - Coge La Guitarra
TTITLE5=Carlos Nuñez - El Pozo De Aran
TTITLE6=Vicente Amigo - Tres Notas Para Decir Te Quiero
TTITLE7=Manzanita - Dimelo Bajito
TTITLE8=La Barberia Del Sur - Alegria De Vivir
TTITLE9=Maita Vende Ca - Loquito Por Tus Huesos
TTITLE10=Mojinos Escozios - Soy Guay
TTITLE11=Diego Torres - La Ultima Noche
TTITLE12=Armando Y El Expreso De Bohemia - Pringao
TTITLE13=Siempre Asi - Todo Vale
TTITLE14=No Me Pises Que Llevo Chanclas - Footing Tonight
TTITLE15=Rocio Durcal - Caricias
TTITLE16=Bertin Osborne - Sabor A Mi
TTITLE17=Alazan - Torero
TTITLE18=El Combo Linga - Que Las Noches Sean Son
TTITLE19=Radio Tarifa - Osú
EXTD=YEAR: 2000 ID3G: 13
EXTT0=
EXTT1=
EXTT2=
EXTT3=
EXTT4=
EXTT5=
EXTT6=
EXTT7=
EXTT8=
EXTT9=
EXTT10=
EXTT11=
EXTT12=
EXTT13=
EXTT14=
EXTT15=
EXTT16=
EXTT17=
EXTT18=
EXTT19=
PLAYORDER=
